<svg width="24" height="24" viewBox="0 0 24 24" fill="none" xmlns="http://www.w3.org/2000/svg">
<rect width="24" height="24" fill="#F2F2F2"/>
<g id="Desktop - Home" clip-path="url(#clip0_0_1)">
<rect width="1440" height="3066" transform="translate(-1155 -3004)" fill="#EDF3F8"/>
<g id="Group 40">
<g id="Bitmap">
<rect id="Mask" x="-1155" y="-38" width="1440" height="100" fill="#1B262F"/>
<mask id="mask0_0_1" style="mask-type:alpha" maskUnits="userSpaceOnUse" x="-1155" y="-38" width="1440" height="100">
<rect id="Mask_2" x="-1155" y="-38" width="1440" height="100" fill="white"/>
</mask>
<g mask="url(#mask0_0_1)">
<g id="Bitmap_2" opacity="0.15">
<circle id="Mask_3" cx="285" cy="216" r="390" fill="#36536B"/>
<circle id="Mask Copy" cx="285" cy="216" r="390" fill="#36536B"/>
<mask id="mask1_0_1" style="mask-type:alpha" maskUnits="userSpaceOnUse" x="-105" y="-174" width="780" height="780">
<circle id="Mask Copy_2" cx="285" cy="216" r="390" fill="white"/>
</mask>
<g mask="url(#mask1_0_1)">
</g>
</g>
</g>
</g>
<g id="Group 24">
<path id="Path" d="M22.675 0H1.325C0.593 0 0 0.593 0 1.325V22.676C0 23.407 0.593 24 1.325 24H12.82V14.706H9.692V11.084H12.82V8.413C12.82 5.313 14.713 3.625 17.479 3.625C18.804 3.625 19.942 3.724 20.274 3.768V7.008L18.356 7.009C16.852 7.009 16.561 7.724 16.561 8.772V11.085H20.148L19.681 14.707H16.561V24H22.677C23.407 24 24 23.407 24 22.675V1.325C24 0.593 23.407 0 22.675 0Z" fill="#FBFCFE"/>
</g>
</g>
</g>
<defs>
<clipPath id="clip0_0_1">
<rect width="1440" height="3066" fill="white" transform="translate(-1155 -3004)"/>
</clipPath>
</defs>
</svg>
